{
    "asset" : {
        "generator" : "Khronos glTF Blender I/O v1.7.33",
        "version" : "2.0"
    },
    "scene" : 0,
    "scenes" : [
        {
            "name" : "Scene",
            "nodes" : [
                0,
                1
            ]
        }
    ],
    "nodes" : [
        {
            "name" : "Empty",
            "rotation" : [
                0.5,
                0.5,
                -0.5,
                0.4999999701976776
            ],
            "translation" : [
                0,
                -0.04356694221496582,
                -0.07624244689941406
            ]
        },
        {
            "mesh" : 0,
            "name" : "1K",
            "rotation" : [
                -0.5,
                0.5000001192092896,
                0.5,
                -0.5000000596046448
            ],
            "scale" : [
                0.44872352480888367,
                0.44872352480888367,
                0.44872352480888367
            ],
            "translation" : [
                -0.654552698135376,
                0.32878583669662476,
                -0.853777289390564
            ]
        }
    ],
    "materials" : [
        {
            "doubleSided" : true,
            "emissiveFactor" : [
                1,
                1,
                1
            ],
            "name" : "Material.001",
            "pbrMetallicRoughness" : {
                "metallicFactor" : 0,
                "roughnessFactor" : 0
            }
        },
        {
            "doubleSided" : true,
            "emissiveFactor" : [
                0.02539011463522911,
                0.02539011463522911,
                0.02539011463522911
            ],
            "name" : "Material.002",
            "pbrMetallicRoughness" : {
                "metallicFactor" : 0,
                "roughnessFactor" : 0.5
            }
        }
    ],
    "meshes" : [
        {
            "name" : "Plane",
            "primitives" : [
                {
                    "attributes" : {
                        "POSITION" : 0,
                        "NORMAL" : 1,
                        "TEXCOORD_0" : 2
                    },
                    "indices" : 3,
                    "material" : 0
                },
                {
                    "attributes" : {
                        "POSITION" : 4,
                        "NORMAL" : 5,
                        "TEXCOORD_0" : 6
                    },
                    "indices" : 7,
                    "material" : 1
                }
            ]
        }
    ],
    "accessors" : [
        {
            "bufferView" : 0,
            "componentType" : 5126,
            "count" : 1265,
            "max" : [
                3.88354754447937,
                0.845079779624939,
                5.354527473449707
            ],
            "min" : [
                -2.2743659019470215,
                -0.8450800776481628,
                -7.925523281097412
            ],
            "type" : "VEC3"
        },
        {
            "bufferView" : 1,
            "componentType" : 5126,
            "count" : 1265,
            "type" : "VEC3"
        },
        {
            "bufferView" : 2,
            "componentType" : 5126,
            "count" : 1265,
            "type" : "VEC2"
        },
        {
            "bufferView" : 3,
            "componentType" : 5123,
            "count" : 1968,
            "type" : "SCALAR"
        },
        {
            "bufferView" : 4,
            "componentType" : 5126,
            "count" : 944,
            "max" : [
                3.88354754447937,
                0.845079779624939,
                5.354527473449707
            ],
            "min" : [
                -2.2743659019470215,
                -0.8450800776481628,
                -7.925523281097412
            ],
            "type" : "VEC3"
        },
        {
            "bufferView" : 5,
            "componentType" : 5126,
            "count" : 944,
            "type" : "VEC3"
        },
        {
            "bufferView" : 6,
            "componentType" : 5126,
            "count" : 944,
            "type" : "VEC2"
        },
        {
            "bufferView" : 7,
            "componentType" : 5123,
            "count" : 2100,
            "type" : "SCALAR"
        }
    ],
    "bufferViews" : [
        {
            "buffer" : 0,
            "byteLength" : 15180,
            "byteOffset" : 0
        },
        {
            "buffer" : 0,
            "byteLength" : 15180,
            "byteOffset" : 15180
        },
        {
            "buffer" : 0,
            "byteLength" : 10120,
            "byteOffset" : 30360
        },
        {
            "buffer" : 0,
            "byteLength" : 3936,
            "byteOffset" : 40480
        },
        {
            "buffer" : 0,
            "byteLength" : 11328,
            "byteOffset" : 44416
        },
        {
            "buffer" : 0,
            "byteLength" : 11328,
            "byteOffset" : 55744
        },
        {
            "buffer" : 0,
            "byteLength" : 7552,
            "byteOffset" : 67072
        },
        {
            "buffer" : 0,
            "byteLength" : 4200,
            "byteOffset" : 74624
        }
    ],
    "buffers" : [
        {
            "byteLength" : 78824,
            "uri" : "data:application/octet-stream;base64,"
        }
    ]
}
